<?xml version="1.0" standalone="no"?>
<!DOCTYPE svg PUBLIC "-//W3C//DTD SVG 20010904//EN"
 "http://www.w3.org/TR/2001/REC-SVG-20010904/DTD/svg10.dtd">
<svg version="1.0" xmlns="http://www.w3.org/2000/svg"
 width="77.000000pt" height="77.000000pt" viewBox="0 0 77.000000 77.000000"
 preserveAspectRatio="xMidYMid meet">
<metadata>
Created by potrace 1.14, written by Peter Selinger 2001-2017
</metadata>
<g transform="translate(0.000000,77.000000) scale(0.100000,-0.100000)"
fill="#000000" stroke="none">
<path d="M412 665 c-24 -14 -71 -30 -103 -36 -48 -9 -65 -19 -93 -50 -40 -43
-50 -83 -39 -152 10 -57 26 -62 35 -10 14 81 39 124 82 143 72 31 118 34 174
10 68 -29 83 -49 91 -117 5 -44 10 -59 24 -61 14 -3 17 4 18 40 1 88 6 154 14
176 6 17 4 22 -9 22 -9 0 -16 4 -16 9 0 5 -10 12 -22 16 -27 8 -28 8 -49 0
-11 -4 -18 0 -22 14 -7 27 -31 26 -85 -4z"/>
<path d="M267 522 c-28 -29 -35 -52 -16 -52 6 0 17 7 25 15 9 8 26 15 39 15
24 0 35 16 28 38 -8 21 -48 13 -76 -16z"/>
<path d="M436 534 c-8 -21 1 -34 23 -34 9 0 26 -7 37 -15 48 -37 61 -1 13 39
-35 29 -64 33 -73 10z"/>
<path d="M290 445 c-15 -18 -5 -35 21 -35 12 0 19 7 19 19 0 24 -25 34 -40 16z"/>
<path d="M450 430 c0 -16 5 -21 23 -18 12 2 22 10 22 18 0 8 -10 16 -22 18
-18 3 -23 -2 -23 -18z"/>
<path d="M259 368 c-14 -26 -17 -146 -5 -173 8 -16 11 -8 16 37 10 81 19 89
75 69 41 -15 49 -15 90 0 56 21 64 13 74 -72 7 -55 6 -62 -11 -67 -21 -5 -24
-18 -5 -25 9 -4 9 -6 0 -6 -6 -1 -14 3 -17 8 -3 4 -25 4 -50 -2 -34 -8 -55 -7
-91 5 -38 13 -45 13 -41 2 3 -8 1 -14 -4 -14 -6 0 -10 9 -10 20 0 25 -38 32
-145 28 l-79 -3 -12 -65 c-7 -36 -13 -75 -13 -87 l-1 -23 360 0 c282 0 360 3
359 13 0 6 -6 46 -13 87 l-12 75 -102 3 c-101 3 -102 3 -91 24 17 31 6 144
-16 168 -22 24 -41 26 -49 5 -3 -8 -14 -15 -25 -15 -11 0 -27 -7 -35 -16 -15
-14 -17 -14 -32 0 -8 9 -24 16 -35 16 -11 0 -22 7 -25 15 -9 22 -42 18 -55 -7z
m85 -249 c3 -3 -4 -5 -14 -6 -11 -1 -20 2 -20 7 0 8 25 8 34 -1z m126 -1 c0
-4 -4 -8 -9 -8 -6 0 -12 4 -15 8 -3 5 1 9 9 9 8 0 15 -4 15 -9z m-47 -5 c3 -5
-6 -9 -20 -10 -19 -1 -22 1 -12 8 17 11 26 11 32 2z"/>
<path d="M373 225 c-3 -9 -3 -19 1 -22 8 -9 37 18 30 28 -8 14 -24 11 -31 -6z"/>
</g>
</svg>
